<?xml version="1.0" encoding="UTF-8"?>
<svg width="247px" height="59px" viewBox="0 0 247 59" version="1.1" xmlns="http://www.w3.org/2000/svg" xmlns:xlink="http://www.w3.org/1999/xlink">
    <!-- Generator: Sketch 63.1 (92452) - https://sketch.com -->
    <title>logo.giphy</title>
    <desc>Created with Sketch.</desc>
    <g id="🙌-hello" stroke="none" stroke-width="1" fill="none" fill-rule="evenodd">
        <g id="👋-hello-friends" transform="translate(-96.000000, -56.000000)">
            <g id="sdk/branding/giphy" transform="translate(100.000000, 58.000000)">
                <g id="logo">
                    <g id="brand/word-mark" transform="translate(55.378049, 4.371429)" fill="#FFFFFF">
                        <g id="wordmark">
                            <polygon id="Shape" fill-rule="nonzero" points="162.384504 15.0085714 170.89645 1.40857143 183.480557 1.40857143 183.480557 1.91857143 167.785772 25.2369048 167.785772 41.0185714 156.61561 41.0185714 156.61561 25.2369048 141.599519 1.86190476 141.599519 1.40857143 154.183626 1.40857143"></polygon>
                            <polygon id="Shape" fill-rule="nonzero" points="127.149006 41.0752381 127.149006 26.0869048 112.924724 26.0869048 112.924724 41.0752381 101.754562 41.0752381 101.754562 1.4652381 112.924724 1.4652381 112.924724 16.5102381 127.149006 16.5102381 127.149006 1.4652381 138.206053 1.4652381 138.206053 41.0752381"></polygon>
                            <path d="M73.7301815,30.3369048 L73.7301815,41.0185714 L62.5600196,41.0185714 L62.5600196,1.40857143 L81.7613865,1.40857143 C92.3659705,1.40857143 97.6258442,8.0952381 97.6258442,15.8302381 C97.6258442,23.9335714 92.3094127,30.1952381 81.7613865,30.3085714 L73.7301815,30.3085714 L73.7301815,30.3369048 Z M73.7301815,20.8735714 L81.7613865,20.8735714 C84.8720645,20.8735714 86.4556823,18.6069048 86.4556823,16.0002381 C86.4556823,13.3935714 84.8155067,11.0135714 81.7613865,11.0135714 L73.7301815,11.0135714 L73.7301815,20.8735714 Z" id="Shape" fill-rule="nonzero"></path>
                            <polygon id="Shape" fill-rule="nonzero" points="44.5463661 41.0185714 44.5463661 1.40857143 55.6599702 1.40857143 55.6599702 41.0185714 44.5463661 41.0185714"></polygon>
                            <path d="M31.1704508,13.1385714 C28.2860039,10.4185714 24.7794215,9.68190476 22.1494846,9.68190476 C15.7018975,9.68190476 11.5449006,13.5352381 11.5449006,21.2702381 C11.5449006,26.3702381 14.2031163,32.6319048 22.1494846,32.6319048 C24.2421225,32.6319048 27.5224739,32.2352381 29.7847851,30.5919048 L29.7847851,25.4919048 L19.8023367,25.4919048 L19.8023367,16.7369048 L39.1168191,16.7369048 L39.1168191,34.3319048 C36.6282767,39.3752381 29.7565062,42.0952381 22.1212057,42.0952381 C6.48297909,42.0952381 0.544412021,31.6402381 0.544412021,21.2702381 C0.544412021,10.9285714 7.33134582,0.275238095 22.1777635,0.275238095 C27.6638683,0.275238095 32.4995587,1.40857143 37.7028746,6.67857143 L31.1704508,13.1385714 Z" id="Shape" fill-rule="nonzero"></path>
                        </g>
                    </g>
                    <g id="sdk/branding/giphy-(icon)">
                        <g id="Purple" transform="translate(33.934669, 17.000000)" fill="#9933FF">
                            <rect id="Rectangle-path" x="0" y="0" width="5.65577816" height="28.3333333"></rect>
                        </g>
                        <g id="Blue" transform="translate(0.000000, 45.333333)" fill="#00CCFF">
                            <rect id="Rectangle-path" x="0" y="0" width="39.5904472" height="5.66666667"></rect>
                        </g>
                        <g id="Green" transform="translate(0.000000, 5.666667)" fill="#00FF99">
                            <rect id="Rectangle-path" x="0" y="0" width="5.65577816" height="39.6666667"></rect>
                        </g>
                        <g id="Yellow" fill="#FFF35C">
                            <rect id="Rectangle-path" x="0" y="0" width="22.6231127" height="5.66666667"></rect>
                        </g>
                        <g id="Red_Corner" transform="translate(22.623113, 0.000000)" fill="#FF6666">
                            <polygon id="Shape" points="11.3115563 11.3333333 11.3115563 5.66666667 5.65577816 5.66666667 5.65577816 0 0 0 0 5.695 0 5.72333333 0 11.3616667 0 11.3616667 0 17 5.65577816 17 11.3115563 17 11.3115563 17 16.9673345 17 16.9673345 11.3333333"></polygon>
                        </g>
                        <g id="Yellow_Shadow" transform="translate(16.967334, 0.000000)" fill="#0F0F0F" opacity="0.4">
                            <polygon id="Shape" points="5.65577816 0 5.65577816 5.66666667 0 5.66666667"></polygon>
                        </g>
                        <g id="Purple_Shadow" transform="translate(33.934669, 17.000000)" fill="#0F0F0F" opacity="0.4">
                            <polygon id="Shape" points="0 5.72333333 0 0 5.65577816 0"></polygon>
                        </g>
                    </g>
                </g>
            </g>
        </g>
    </g>
</svg>